# xmcd CD database file
#
# Track frame offsets:
#	150
#	10187
#	33947
#	41515
#	64979
#	75612
#	113604
#	141666
#	169675
#	217294
#	256857
#	304298
#	332712
#
# Disc length: 4771 seconds
#
# Revision: 0
# Processed by: cddbd v1.5.2PL0 Copyright (c) Steve Scherf et al.
# Submitted via: CDex 1.70beta2
#
DISCID=b812a10d
DTITLE=Keith Jarrett - Selected Recordings
DYEAR=1900
DGENRE=Jazz
TTITLE0=Spirits 16 (1985)
TTITLE1=Spirits 20 (1985)
TTITLE2=Spirits 2 (1985)
TTITLE3=Spirits 13 (1985)
TTITLE4=Spirits 25 (1985)
TTITLE5=The Windup (1974)
TTITLE6=Long As You Know You're Living Yours (1974)
TTITLE7=My Song (1947)
TTITLE8=The Journey Home (1947)
TTITLE9=Late Night Willie (1979)
TTITLE10=The Cure (1990)
TTITLE11=Bob-Be (1994)
TTITLE12=No Lovely Nights (1994)
EXTD=
EXTT0=
EXTT1=
EXTT2=
EXTT3=
EXTT4=
EXTT5=
EXTT6=
EXTT7=
EXTT8=
EXTT9=
EXTT10=
EXTT11=
EXTT12=
PLAYORDER=
